<svg height="512pt" viewBox="0 -37 512 512" width="512pt" xmlns="http://www.w3.org/2000/svg"><path d="m235.886719 89.46875c6.101562 2.902344 12.921875 4.53125 20.113281 4.53125 7.195312 0 14.011719-1.628906 20.113281-4.53125l42.625 42.625h42.425781l-63.460937-63.457031c3.375-6.484375 5.296875-13.835938 5.296875-21.636719 0-25.914062-21.085938-47-47-47s-47 21.085938-47 47c0 7.800781 1.921875 15.152344 5.296875 21.636719l-63.460937 63.457031h42.425781zm0 0"/><path d="m204.914062 277.414062c-11.308593 0-20.410156 8.578126-20.410156 22.75 0 14.171876 9.101563 22.75 20.410156 22.75 11.3125 0 20.410157-8.578124 20.410157-22.75 0-14.171874-9.097657-22.75-20.410157-22.75zm0 0"/><path d="m391.203125 278.585938h-12.871094v43.160156h12.871094c12.871094 0 21.710937-7.671875 21.710937-21.582032 0-13.910156-8.839843-21.578124-21.710937-21.578124zm0 0"/><path d="m0 162.09375v276.476562h512v-276.476562zm105.726562 185.652344c-15.210937 0-30.554687-3.769532-39.652343-9.359375l9.878906-22.359375c8.582031 5.070312 20.023437 8.320312 30.03125 8.320312 8.710937 0 11.832031-1.820312 11.832031-4.941406 0-11.441406-50.3125-2.210938-50.3125-36.140625 0-16.902344 14.171875-30.683594 42.382813-30.683594 12.21875 0 24.828125 2.601563 34.320312 7.929688l-9.230469 22.230469c-8.972656-4.546876-17.421874-6.757813-25.351562-6.757813-8.972656 0-11.832031 2.601563-11.832031 5.71875 0 10.921875 50.3125 1.820313 50.3125 35.363281 0 16.640625-14.167969 30.679688-42.378907 30.679688zm99.1875 0c-29.640624 0-51.351562-20.019532-51.351562-47.582032 0-27.558593 21.710938-47.582031 51.351562-47.582031 29.640626 0 51.351563 20.023438 51.351563 47.582031 0 27.5625-21.710937 47.582032-51.351563 47.582032zm134.289063-2.078125h-71.761719v-91.003907h30.683594v67.210938h41.078125zm53.300781 0h-44.855468v-91.003907h44.855468c30.421875 0 51.351563 17.289063 51.351563 45.5 0 28.210938-20.929688 45.503907-51.351563 45.503907zm0 0"/></svg>