<svg width="1099" height="798" viewBox="0 0 1099 798" fill="none" xmlns="http://www.w3.org/2000/svg">
<path d="M471 746C677.002 746 844 579.002 844 373C844 166.998 677.002 0 471 0C264.998 0 98 166.998 98 373C98 579.002 264.998 746 471 746Z" fill="#EFDE9D" fill-opacity="0.5"/>
<path d="M148 797.68C229.738 797.68 296 787.078 296 774C296 760.922 229.738 750.32 148 750.32C66.2619 750.32 0 760.922 0 774C0 787.078 66.2619 797.68 148 797.68Z" fill="#F2F2F2"/>
<path d="M870 773.609C996.473 773.609 1099 757.205 1099 736.969C1099 716.733 996.473 700.329 870 700.329C743.527 700.329 641 716.733 641 736.969C641 757.205 743.527 773.609 870 773.609Z" fill="#F2F2F2"/>
<path d="M819.12 384.785C819.12 384.785 821.07 391.283 810.022 397.132C798.974 402.981 795.725 425.077 808.722 431.576C821.72 438.075 825.619 446.523 819.12 452.372C812.622 458.221 800.924 473.818 816.521 477.717C832.118 481.616 834.068 489.415 829.518 492.664C824.969 495.914 839.916 486.815 839.916 486.815C839.916 486.815 842.516 502.412 856.163 498.513C869.811 494.614 908.154 420.528 888.657 410.13C869.161 399.732 819.12 384.785 819.12 384.785Z" fill="#2F2E41"/>
<path d="M842.675 447.537C842.675 447.537 849.416 471.131 837.619 472.816C830.298 473.957 823.361 476.848 817.396 481.243L839.304 509.893H879.751L905.031 484.613C905.031 484.613 871.325 459.334 878.066 444.166C884.807 428.999 842.675 447.537 842.675 447.537Z" fill="#FFB9B9"/>
<path opacity="0.1" d="M842.675 447.537C842.675 447.537 849.416 471.131 837.619 472.816C830.298 473.957 823.361 476.848 817.396 481.243L839.304 509.893H879.751L905.031 484.613C905.031 484.613 871.325 459.334 878.066 444.166C884.807 428.999 842.675 447.537 842.675 447.537Z" fill="black"/>
<path d="M852.787 740.779L891.549 754.261L918.513 755.946L916.828 732.352L861.213 715.904L852.787 740.779Z" fill="#FFB9B9"/>
<path d="M902.503 735.723C902.503 735.723 902.503 759.317 905.874 759.317C909.244 759.317 954.747 754.261 968.23 759.317C981.712 764.373 1001.94 745.834 991.824 735.723C981.712 725.611 965.218 710.443 954.927 713.814C944.635 717.184 902.503 725.611 902.503 725.611V735.723Z" fill="#575A89"/>
<path d="M778.634 713.814C778.634 713.814 758.41 754.261 771.892 757.631C785.375 761.002 800.542 755.946 802.228 754.261C803.913 752.576 827.507 745.834 830.878 749.205C834.248 752.576 834.248 735.723 834.248 735.723L778.634 713.814Z" fill="#575A89"/>
<path d="M795.487 658.199C795.487 658.199 763.466 702.017 787.061 713.814C810.655 725.611 923.569 725.611 931.996 713.814C940.423 702.017 943.793 664.94 931.996 661.57C920.199 658.199 795.487 658.199 795.487 658.199Z" fill="#2F2E41"/>
<path opacity="0.2" d="M795.487 658.199C795.487 658.199 763.466 702.017 787.061 713.814C810.655 725.611 923.569 725.611 931.996 713.814C940.423 702.017 943.793 664.94 931.996 661.57C920.199 658.199 795.487 658.199 795.487 658.199Z" fill="black"/>
<path d="M856.157 459.334C877.565 459.334 894.919 441.98 894.919 420.572C894.919 399.165 877.565 381.81 856.157 381.81C834.75 381.81 817.396 399.165 817.396 420.572C817.396 441.98 834.75 459.334 856.157 459.334Z" fill="#FFB9B9"/>
<path d="M795.487 481.243L829.193 474.502C829.193 474.502 837.619 501.466 864.584 496.411C891.549 491.355 898.29 474.502 898.29 474.502C898.29 474.502 918.513 482.928 920.199 482.928C921.884 482.928 943.793 491.355 943.793 496.411C943.793 501.466 918.513 552.025 918.513 552.025L921.884 643.031L797.172 639.661L805.599 550.34L795.487 481.243Z" fill="#105578"/>
<path d="M776.949 525.061C776.949 525.061 766.837 614.381 773.578 621.122C780.319 627.864 807.284 646.402 807.284 646.402V626.178L793.802 600.899L807.284 541.914L776.949 525.061Z" fill="#FFB9B9"/>
<path d="M951.377 522.533C951.377 522.533 945.478 614.381 945.478 617.752C945.478 621.123 930.311 632.92 925.255 632.92C920.199 632.92 916.828 624.493 916.828 624.493L928.625 611.011L920.199 541.914L951.377 522.533Z" fill="#FFB9B9"/>
<path d="M935.367 651.458C935.367 651.458 1011.2 609.325 1012.89 651.458C1014.58 693.59 974.128 710.443 974.128 710.443C974.128 710.443 869.64 741.775 865.427 730.322C861.213 718.87 852.787 700.331 859.528 698.646C866.269 696.961 874.696 693.59 878.066 696.961C881.437 700.331 923.569 671.681 923.569 671.681L935.367 651.458Z" fill="#2F2E41"/>
<path opacity="0.2" d="M970.758 646.402C970.758 646.402 955.59 653.143 950.534 658.199C945.478 663.255 923.569 671.681 923.569 671.681" stroke="black" stroke-width="2" stroke-miterlimit="10"/>
<path d="M805.599 484.614L795.487 481.243C795.487 481.243 758.41 520.005 770.207 530.117C782.004 540.228 788.746 543.599 792.116 546.97C795.487 550.34 812.34 552.025 812.34 552.025L805.599 484.614Z" fill="#105578"/>
<path d="M928.625 493.04L943.793 496.411C943.793 496.411 955.59 521.69 958.961 525.061C962.331 528.431 953.905 526.746 948.849 533.487C943.793 540.228 938.737 552.025 928.625 552.025C918.514 552.025 905.031 535.172 905.031 535.172L928.625 493.04Z" fill="#105578"/>
<path d="M798.857 666.625C798.857 666.625 734.816 621.122 712.907 654.828C690.999 688.534 807.284 734.037 824.137 740.778C840.99 747.52 856.158 754.261 856.158 754.261C856.158 754.261 871.325 717.184 871.325 710.443C871.325 703.702 859.528 703.702 856.158 703.702C852.787 703.702 837.619 700.331 834.249 695.275C830.878 690.22 798.857 666.625 798.857 666.625Z" fill="#2F2E41"/>
<path opacity="0.2" d="M763.466 654.828C763.466 654.828 780.319 668.311 795.487 671.681C810.655 675.052 815.711 683.478 815.711 683.478" stroke="black" stroke-width="2" stroke-miterlimit="10"/>
<path d="M787.232 591.462L788.578 662.818C788.623 665.175 789.597 667.419 791.289 669.06C792.981 670.702 795.253 671.608 797.61 671.582L930.4 670.09C932.662 670.064 934.831 669.181 936.468 667.619C938.104 666.056 939.087 663.931 939.217 661.672L943.248 591.808C943.318 590.593 943.139 589.378 942.723 588.235C942.306 587.092 941.661 586.046 940.826 585.161C939.991 584.277 938.984 583.572 937.867 583.091C936.75 582.609 935.546 582.361 934.33 582.361H796.163C794.976 582.361 793.801 582.597 792.706 583.057C791.611 583.516 790.619 584.189 789.788 585.037C788.956 585.884 788.302 586.889 787.863 587.992C787.424 589.095 787.21 590.275 787.232 591.462V591.462Z" fill="#575A89"/>
<path d="M858.229 371.88C858.229 371.88 860.388 379.079 848.149 385.559C835.911 392.038 832.311 416.516 846.71 423.715C861.108 430.914 865.428 440.274 858.229 446.753C851.029 453.232 838.07 470.511 855.349 474.83C872.627 479.15 874.787 487.789 869.748 491.389C864.708 494.989 881.266 484.91 881.266 484.91C881.266 484.91 884.146 502.188 899.265 497.868C914.383 493.549 929.468 415.028 912.615 394.805C896.945 376 858.229 371.88 858.229 371.88Z" fill="#2F2E41"/>
<path d="M853.629 364.469C853.633 353.922 885.188 361.501 898.717 376.227C908.086 386.425 922.316 401.768 910.392 412.583C898.467 423.397 930.831 437.575 939.511 441.873C948.191 446.171 965.328 459.316 949.854 468.134C934.38 476.952 934.63 485.854 940.453 487.962C946.277 490.069 927.614 484.828 927.614 484.828C927.614 484.828 929.499 502.243 913.776 502.159C898.053 502.076 852.943 415.665 863.72 391.646C873.74 369.314 853.629 364.469 853.629 364.469Z" fill="#2F2E41"/>
<path d="M860.465 362.158C818.267 359.617 814.032 391.381 814.032 391.381C814.323 409.763 843.515 400.806 851.622 403.546C861.404 396.51 880.258 383.196 893.742 373.695C883.952 366.802 872.42 362.804 860.465 362.158Z" fill="#2F2E41"/>
<path d="M848.442 564.849C848.442 564.849 810.59 387.449 573.669 258.76" stroke="#3F3D56" stroke-width="2" stroke-miterlimit="10"/>
<path d="M583.431 254.891L583.905 256.836L574.322 259.16L577.341 268.549L575.435 269.16L571.76 257.724L583.431 254.891Z" fill="#3F3D56"/>
<path d="M297.432 354C297.432 354 306.091 399.586 393.743 443.953" stroke="#3F3D56" stroke-width="2" stroke-miterlimit="10"/>
<path d="M386.711 446.524L386.496 445.114L393.44 444.063L391.883 437.213L393.274 436.899L395.168 445.242L386.711 446.524Z" fill="#3F3D56"/>
<path d="M68.4734 746.111C68.4734 768.58 55.117 776.425 38.6395 776.425C38.2578 776.425 37.8767 776.421 37.4962 776.412C36.7328 776.396 35.9766 776.36 35.2295 776.309C20.359 775.256 8.80566 767.008 8.80566 746.111C8.80566 724.486 36.4401 697.199 38.5159 695.18L38.5196 695.176C38.5996 695.098 38.6396 695.06 38.6396 695.06C38.6396 695.06 68.4734 723.643 68.4734 746.111Z" fill="#105578"/>
<path d="M37.5524 772.988L48.464 757.741L37.5251 774.662L37.4961 776.413C36.7326 776.396 35.9765 776.36 35.2294 776.309L36.4055 753.829L36.3964 753.655L36.4164 753.622L36.5272 751.499L25.561 734.536L36.5617 749.907L36.5872 750.358L37.4761 733.373L28.0877 715.845L37.5906 730.392L38.5158 695.18L38.5194 695.06V695.176L38.3649 722.943L47.7116 711.935L38.3267 725.335L38.0795 740.542L46.8063 725.948L38.0432 742.78L37.9051 751.234L50.5744 730.921L37.8578 754.184L37.5524 772.988Z" fill="#78ADAA"/>
<path d="M210.773 740.291L217.155 735.549C217.155 735.549 221.379 759.146 216.665 762.681C211.952 766.217 194.275 772.109 194.275 779.18C194.275 786.251 154.207 795.678 153.028 785.072C151.85 774.466 156.564 768.574 156.564 768.574C156.564 768.574 175.419 749.718 177.776 746.183C180.133 742.647 186.025 735.577 186.025 735.577L210.773 740.291Z" fill="#2F2E41"/>
<path d="M116.497 446.854C116.497 446.854 116.673 447.891 116.98 449.788C117.263 451.473 117.651 453.854 118.123 456.788C123.072 486.992 137.509 575.907 136.53 578.841C135.352 582.377 127.103 595.34 136.53 598.875C137.438 599.217 138.416 600.325 139.465 602.069C141.489 605.825 143.158 609.763 144.45 613.83C150.071 630.14 156.081 656.243 159.558 674.32C161.078 682.263 162.115 688.65 162.421 691.997C162.528 692.771 162.54 693.554 162.457 694.331C161.278 699.044 169.527 715.543 173.063 720.257C176.598 724.97 182.49 729.684 181.312 734.398C180.133 739.112 210.773 752.075 214.309 743.826C217.844 735.577 217.844 730.863 219.023 728.506C220.201 726.149 221.38 709.651 215.487 707.294C209.595 704.937 213.13 663.691 207.238 655.441C205.27 652.695 202.265 643.397 199.118 632.214C197.881 627.83 196.632 623.163 195.406 618.485C190.433 599.311 186.026 580.02 186.026 580.02L187.204 442.14L122.389 433.891L120.727 437.556L117.416 444.827L116.497 446.854Z" fill="#2F2E41"/>
<path d="M112.961 673.118C112.961 673.118 103.533 663.691 98.8196 673.118C94.1057 682.546 89.3919 719.078 81.1427 727.327C72.8934 735.577 62.2873 776.823 74.0719 779.18C85.8565 781.537 98.8196 775.644 99.998 768.574C101.176 761.503 125.924 724.971 125.924 721.435C125.924 717.9 109.426 704.937 109.426 704.937L112.961 673.118Z" fill="#2F2E41"/>
<path d="M257.912 382.038C257.912 382.038 242.592 519.918 239.056 532.881C235.521 545.844 216.666 595.34 210.773 603.589C204.881 611.838 167.17 679.01 162.456 682.546C157.743 686.081 148.315 695.509 148.315 695.509C148.315 695.509 130.638 713.186 128.281 716.721C125.924 720.257 105.89 709.65 104.712 702.58C103.533 695.509 105.89 683.724 107.069 679.01C108.247 674.297 104.712 667.226 108.247 663.69C111.783 660.155 129.459 642.478 129.459 634.229C129.459 625.98 160.099 577.663 171.884 567.057C183.669 556.45 181.312 538.774 181.312 538.774V466.887L116.496 446.854C116.496 446.854 120.032 390.287 128.281 390.287C136.53 390.287 244.949 371.432 257.912 382.038Z" fill="#2F2E41"/>
<path d="M162.456 185.235C183.934 185.235 201.345 167.824 201.345 146.346C201.345 124.868 183.934 107.457 162.456 107.457C140.978 107.457 123.567 124.868 123.567 146.346C123.567 167.824 140.978 185.235 162.456 185.235Z" fill="#9F616A"/>
<path d="M175.419 176.986C175.419 176.986 180.133 194.663 186.025 199.377C191.918 204.091 170.705 224.125 170.705 224.125L130.638 226.481L123.567 204.091C123.567 204.091 136.53 178.165 132.995 161.666C129.459 145.168 175.419 176.986 175.419 176.986Z" fill="#9F616A"/>
<path d="M191.918 197.02C191.918 197.02 181.312 198.198 178.955 201.734C176.598 205.269 160.1 215.875 147.137 213.518C134.173 211.162 125.924 207.626 123.567 208.805C121.21 209.983 116.497 234.731 116.497 234.731L129.46 272.442L127.103 376.146L123.567 404.429C123.567 404.429 116.497 395.001 144.78 400.894C173.063 406.786 209.595 396.18 221.38 395.001C233.164 393.823 253.198 390.288 254.377 383.217C255.555 376.146 250.841 350.22 250.841 350.22L231.986 271.263L220.201 228.838L191.918 197.02Z" fill="#105578"/>
<path d="M180.771 191.701C180.771 191.701 190.739 186.414 194.275 191.128C197.81 195.842 242.592 202.912 242.592 206.448C242.592 209.983 252.019 305.438 249.663 313.688C247.306 321.937 254.376 331.365 254.376 331.365L262.626 366.718C262.626 366.718 285.016 433.891 275.589 436.248C266.161 438.605 257.912 436.248 254.376 436.248C250.841 436.248 252.019 391.466 242.592 379.682C233.164 367.897 220.201 338.435 217.844 332.543C215.487 326.651 186.026 245.337 187.204 235.909C188.383 226.482 180.771 191.701 180.771 191.701Z" fill="#D0CDE1"/>
<path d="M131.816 197.02C131.816 197.02 122.388 197.02 121.21 199.377C120.032 201.734 108.247 217.054 103.533 220.589C98.8192 224.125 82.3208 239.445 82.3208 242.98C82.3208 246.515 116.496 272.442 116.496 272.442C116.496 272.442 130.638 341.971 123.567 365.54C116.496 389.109 105.89 445.675 110.604 449.211C115.318 452.746 125.924 453.925 125.924 449.211C125.924 444.497 132.995 393.823 138.887 383.217C144.779 372.611 162.456 305.438 155.385 286.583C148.315 267.728 131.816 197.02 131.816 197.02Z" fill="#D0CDE1"/>
<path d="M287.373 313.688C287.373 313.688 288.552 350.22 275.589 369.075C262.626 387.931 254.376 409.143 254.376 409.143C254.376 409.143 233.164 403.251 229.629 396.18C226.093 389.109 203.703 395.001 203.703 392.644C203.703 390.287 230.807 378.503 233.164 376.146C235.521 373.789 243.77 373.789 248.484 369.075C253.198 364.361 254.376 353.755 254.376 353.755L259.09 323.115L287.373 313.688Z" fill="#9F616A"/>
<path d="M189.241 122.368C192.233 122.096 195.319 121.797 197.963 120.371C203.887 117.176 205.458 108.077 200.948 103.08C199.705 101.809 198.314 100.691 196.805 99.7489L187.847 93.6517C183.885 90.9551 179.83 88.2142 175.209 86.943C171.03 85.7932 166.615 85.9113 162.289 86.1803C153.89 86.7023 145.44 87.7805 137.54 90.6803C129.641 93.58 122.272 98.4311 117.488 105.354C109.903 116.328 109.799 131.128 113.976 143.798C118.154 156.467 126.089 167.499 133.908 178.308L137.965 158.513C138.326 156.75 138.793 154.817 140.26 153.774C143.904 151.18 148.362 156.505 152.835 156.471C155.709 156.449 158.122 154.085 159.211 151.425C160.301 148.765 160.372 145.82 160.624 142.957C161.158 136.892 163.278 128.454 169.021 125.11C174.372 121.994 183.226 122.914 189.241 122.368Z" fill="#2F2E41"/>
<path opacity="0.1" d="M187.059 447.805C187.059 447.805 183.079 562.932 180.722 566.467C178.365 570.003 180.722 447.443 180.722 447.443L187.059 447.805Z" fill="black"/>
<path d="M233.164 206.448H242.592C242.592 206.448 282.659 260.657 277.946 264.192C273.232 267.727 277.946 277.155 277.946 277.155L287.373 294.832C287.373 294.832 299.158 305.438 295.622 307.795C292.087 310.152 287.373 319.58 287.373 319.58C287.373 319.58 263.804 316.044 256.733 330.186L241.449 310.89L233.164 206.448Z" fill="#D0CDE1"/>
<path d="M236.496 223.884L204.146 237.243L229.041 297.529L261.391 284.17L236.496 223.884Z" fill="#2F2E41"/>
<path d="M232.705 259.242C236.278 257.766 238.076 253.909 236.72 250.627C235.365 247.344 231.369 245.879 227.796 247.355C224.222 248.83 222.425 252.687 223.78 255.97C225.136 259.253 229.131 260.718 232.705 259.242Z" fill="#105578"/>
<path d="M209.595 300.725C209.595 300.725 124.745 371.432 110.604 349.041C96.4624 326.651 125.924 307.795 125.924 307.795C125.924 307.795 151.85 308.974 181.312 290.118L210.773 277.155C210.773 277.155 237.669 238.756 246.835 253.378C256 268 231.189 293.449 209.595 300.725Z" fill="#9F616A"/>
<path d="M95.2838 238.266L82.3208 242.98V278.334L77.6069 285.405C77.6069 285.405 78.7854 299.546 82.3208 303.081C85.8562 306.617 92.9269 305.438 90.57 313.688C89.1535 319.066 88.7538 324.661 89.3915 330.186C89.3915 330.186 110.604 357.291 111.782 353.755C112.961 350.22 129.459 306.617 131.816 306.617C134.173 306.617 108.247 238.266 108.247 238.266H95.2838Z" fill="#D0CDE1"/>
<path d="M250.252 416.803C250.252 416.803 262.437 405.018 256.344 404.429C250.252 403.84 229.039 392.055 225.504 397.947C221.969 403.84 250.252 416.803 250.252 416.803Z" fill="#2F2E41"/>
<path d="M474 154.486C483.389 154.486 491 150.457 491 145.486C491 140.516 483.389 136.486 474 136.486C464.611 136.486 457 140.516 457 145.486C457 150.457 464.611 154.486 474 154.486Z" fill="#57B894"/>
<path d="M539 175.486C500.667 161.009 462.333 161.009 424 175.486V128.487C461.498 117.171 501.502 117.171 539 128.487V175.486Z" stroke="#3F3D56" stroke-width="2" stroke-miterlimit="10"/>
<path d="M523 165.767C495.333 155.317 467.667 155.317 440 165.767V131.845C467.064 123.678 495.936 123.678 523 131.845V165.767Z" stroke="#3F3D56" stroke-width="2" stroke-miterlimit="10"/>
<path d="M480 150.486C489.389 150.486 497 146.457 497 141.486C497 136.516 489.389 132.486 480 132.486C470.611 132.486 463 136.516 463 141.486C463 146.457 470.611 150.486 480 150.486Z" stroke="#3F3D56" stroke-width="2" stroke-miterlimit="10"/>
<path d="M486.5 210.85C495.699 208.973 502.351 203.503 501.357 198.632C500.363 193.762 492.099 191.336 482.9 193.214C473.701 195.091 467.049 200.561 468.043 205.431C469.037 210.302 477.301 212.728 486.5 210.85Z" fill="#57B894"/>
<path d="M554.386 218.427C513.932 211.908 476.373 219.574 441.709 241.425L432.311 195.374C466.789 176.788 505.984 168.789 544.988 172.377L554.386 218.427Z" stroke="#3F3D56" stroke-width="2" stroke-miterlimit="10"/>
<path d="M536.766 212.104C507.569 207.398 480.461 212.931 455.443 228.701L448.659 195.465C473.543 182.051 501.832 176.277 529.983 178.867L536.766 212.104Z" stroke="#3F3D56" stroke-width="2" stroke-miterlimit="10"/>
<path d="M491.579 205.731C500.778 203.853 507.43 198.383 506.436 193.513C505.442 188.643 497.179 186.217 487.979 188.095C478.78 189.972 472.129 195.442 473.123 200.312C474.117 205.183 482.38 207.609 491.579 205.731Z" stroke="#3F3D56" stroke-width="2" stroke-miterlimit="10"/>
<path d="M498.134 259.151C498.479 254.193 491.166 249.645 481.799 248.993C472.433 248.341 464.561 251.832 464.216 256.791C463.871 261.75 471.184 266.298 480.55 266.949C489.916 267.601 497.789 264.11 498.134 259.151Z" fill="#57B894"/>
<path d="M543.935 292.411C506.7 275.307 468.459 272.646 429.213 284.428L432.476 237.541C470.669 228.856 510.576 231.633 547.198 245.525L543.935 292.411Z" stroke="#3F3D56" stroke-width="2" stroke-miterlimit="10"/>
<path d="M528.649 281.604C501.774 269.259 474.174 267.339 445.849 275.842L448.204 242.002C475.77 235.734 504.572 237.738 531.004 247.764L528.649 281.604Z" stroke="#3F3D56" stroke-width="2" stroke-miterlimit="10"/>
<path d="M504.397 255.578C504.742 250.619 497.429 246.071 488.063 245.419C478.696 244.767 470.824 248.259 470.479 253.217C470.134 258.176 477.447 262.724 486.813 263.376C496.179 264.027 504.052 260.536 504.397 255.578Z" stroke="#3F3D56" stroke-width="2" stroke-miterlimit="10"/>
<path d="M414.922 214.092C414.922 214.092 341.426 204.037 288.94 234.796" stroke="#3F3D56" stroke-width="2" stroke-miterlimit="10"/>
<path d="M290.708 224.459L292.617 225.063L289.633 234.462L299.227 236.751L298.76 238.698L287.077 235.907L290.708 224.459Z" fill="#3F3D56"/>
<path d="M414.075 477.191C412.477 478.789 411.145 480.388 410.079 481.986C401.288 493.708 388.5 501.434 374.381 505.43C364.524 508.094 355.2 513.422 347.474 521.148C328.825 539.796 328.026 569.634 343.744 591.479C369.319 627.178 410.079 641.297 438.851 612.792C446.31 605.332 451.639 596.275 454.569 586.417C458.832 572.032 466.557 558.711 478.546 549.653C480.144 548.321 481.743 546.989 483.341 545.391C505.186 523.546 491.333 494.241 464.16 474.527C448.442 462.805 427.129 463.604 414.075 477.191Z" fill="#914B1B"/>
<path d="M424.732 516.353C414.342 516.353 406.083 524.612 406.083 535.001C406.083 545.391 414.342 553.65 424.732 553.65C435.122 553.65 443.38 545.391 443.38 535.001C443.38 524.612 435.122 516.353 424.732 516.353Z" fill="#EFDE9D"/>
<path d="M403.42 635.703C379.71 635.703 354.934 620.784 337.085 596.009C318.703 570.434 320.568 536.6 341.614 515.554C350.139 507.029 360.529 500.902 371.984 497.705C381.575 495.041 394.629 489.446 403.42 477.191C405.019 475.06 406.617 473.195 408.215 471.597C416.474 463.072 427.93 458.277 439.918 458.277C450.041 458.277 460.165 461.74 468.423 467.867C488.137 482.52 500.126 500.635 501.458 517.685C502.257 529.94 497.994 541.395 488.404 550.986C486.539 552.851 484.674 554.449 482.809 555.781C472.952 563.241 465.759 574.43 461.497 588.549C458.3 599.738 452.173 610.128 443.914 618.387C432.725 629.576 418.605 635.703 403.42 635.703ZM440.184 474.261C432.458 474.261 424.999 477.191 419.937 482.52C418.605 483.852 417.54 485.184 416.474 486.516C407.416 499.037 393.563 508.095 376.513 512.89C367.722 515.288 359.463 520.083 353.069 526.477C337.618 541.928 336.286 567.237 350.139 586.418C365.058 607.198 385.038 619.452 403.42 619.452C414.343 619.452 424.466 615.19 432.991 606.665C439.385 600.271 443.914 592.545 446.578 583.754C451.64 566.438 460.964 552.318 473.485 542.727C474.817 541.662 476.149 540.596 477.481 539.264C483.608 533.137 486.539 526.21 486.006 518.484C485.207 506.23 475.083 491.844 459.365 480.388C453.505 476.659 446.844 474.261 440.184 474.261Z" fill="#454B54"/>
<path d="M442.571 503.939L529.977 416.53L543.164 429.716L455.758 517.125L442.571 503.939Z" fill="#EFDE9D"/>
<path d="M576.318 405.528L552.075 427.107C548.879 430.037 544.083 429.771 541.153 426.84L532.894 418.582C529.964 415.651 529.697 410.856 532.628 407.659L554.207 383.416C557.137 379.953 562.465 379.953 565.929 383.15L576.585 393.806C579.782 397.003 579.515 402.331 576.318 405.528Z" fill="#914B1B"/>
<path d="M546.744 437.231C542.482 437.231 538.486 435.632 535.555 432.435L527.297 424.177C521.169 418.049 520.903 408.459 526.764 402.331L548.343 378.088C551.273 374.625 555.802 372.76 560.331 372.76C564.594 372.76 568.59 374.359 571.52 377.556L582.176 388.212C585.373 391.409 586.972 395.671 586.972 399.934C586.972 404.196 584.841 408.459 581.644 411.389L557.401 432.968C554.47 435.632 550.741 437.231 546.744 437.231ZM560.065 388.745L538.486 412.988L546.744 421.246L570.987 399.667L560.065 388.745Z" fill="#454B54"/>
<path d="M455.901 524.878C453.77 524.878 451.905 524.079 450.307 522.48L437.253 509.426C434.056 506.23 434.056 501.168 437.253 498.237L524.634 410.856C527.831 407.659 532.893 407.659 535.823 410.856L548.877 423.91C552.074 427.107 552.074 432.169 548.877 435.099L461.496 522.747C459.897 524.345 458.033 524.878 455.901 524.878ZM454.037 503.832L455.901 505.697L532.094 429.505L530.229 427.64L454.037 503.832ZM407.948 582.422C405.817 582.422 403.952 581.623 402.354 580.024L379.709 557.38C376.512 554.183 376.512 549.121 379.709 546.191C382.906 542.994 387.968 542.994 390.898 546.191L413.543 568.835C416.74 572.032 416.74 577.094 413.543 580.024C411.944 581.623 409.813 582.422 407.948 582.422Z" fill="#454B54"/>
<path d="M548.459 502.128C548.459 502.128 639.404 557.875 739.584 504.2" stroke="#3F3D56" stroke-width="2" stroke-miterlimit="10"/>
<path d="M738.561 514.269L736.533 513.895L739.246 504.41L729.086 503.254L729.489 501.306L741.863 502.717L738.561 514.269Z" fill="#3F3D56"/>
</svg>
